<svg id="Layer_1" data-name="Layer 1" xmlns="http://www.w3.org/2000/svg" viewBox="0 0 512 512"><defs><style>.cls-1{fill:#141f38;}.cls-2{fill:#dd2c6c;}.cls-3{fill:#e9eef4;}.cls-4{opacity:0.14;}.cls-5{fill:#17292d;}</style></defs><title>molecule-1-filled</title><path class="cls-1" d="M448,128a64,64,0,1,0-53.39-28.71L337,156.9a128,128,0,0,0-158-3.16L123.91,94a38.41,38.41,0,1,0-18.46,17.74l54.77,59.33A128,128,0,0,0,156.89,337L77.2,416.7a51.21,51.21,0,1,0,18.1,18.1L175,355.11A128,128,0,0,0,333.28,358l46,49.55A51.1,51.1,0,1,0,398,390.15l-46-49.54A128,128,0,0,0,355.1,175l57.61-57.61A63.69,63.69,0,0,0,448,128Z"/><path class="cls-2" d="M89.6,89.6A12.8,12.8,0,1,0,76.8,76.8,12.81,12.81,0,0,0,89.6,89.6Z"/><path class="cls-2" d="M448,25.6A38.4,38.4,0,1,0,486.4,64,38.44,38.44,0,0,0,448,25.6Z"/><path class="cls-2" d="M422.4,409.6A25.6,25.6,0,1,0,448,435.2,25.63,25.63,0,0,0,422.4,409.6Z"/><path class="cls-2" d="M51.2,435.2a25.6,25.6,0,1,0,25.6,25.6A25.63,25.63,0,0,0,51.2,435.2Z"/><path class="cls-3" d="M256,153.6A102.4,102.4,0,1,0,358.4,256,102.52,102.52,0,0,0,256,153.6Z"/><g class="cls-4"><path class="cls-5" d="M256,128a128.33,128.33,0,0,0-16.66,1.21A108.73,108.73,0,1,1,136.29,301,127.95,127.95,0,1,0,256,128Z"/></g><g class="cls-4"><path class="cls-5" d="M448,0a64.17,64.17,0,0,0-10.26.9A44.8,44.8,0,1,1,384.9,53.74,64,64,0,1,0,448,0Z"/></g><g class="cls-4"><path class="cls-5" d="M422.4,384a51.25,51.25,0,0,0-11,1.21,31.93,31.93,0,1,1-39,39,51.19,51.19,0,1,0,50-40.24Z"/></g><g class="cls-4"><path class="cls-5" d="M51.2,409.6a51.25,51.25,0,0,0-11,1.21,31.93,31.93,0,1,1-39,39,51.19,51.19,0,1,0,50-40.24Z"/></g><g class="cls-4"><path class="cls-5" d="M100.74,40.06A38.39,38.39,0,0,1,52.86,87.94a38.4,38.4,0,1,0,47.89-47.89Z"/></g></svg>